# xmcd CD database file
# Copyright (C) 1995-1998 Ti Kan
#
# Track frame offsets:
#	150
#	15611
#	30466
#	48700
#	64614
#	78144
#	99585
#	114940
#	131725
#	144705
#	163870
#	175752
#
# Disc length: 2552 seconds
#
# Revision: 1
# Processed by: cddbd v1.4PL0 Copyright (c) Steve Scherf et al.
# Submitted via: CDex 1.30
#
DISCID=9909f60c
DTITLE=Os Macanudos - Incediando a Vaneira
DYEAR=2001
DGENRE=Country
TTITLE0=Num Rodeio
TTITLE1=Gauderiando no Povoado
TTITLE2=Na distancia da lida
TTITLE3=Balanço do mar
TTITLE4=Capão de mato
TTITLE5=Estou com saudades
TTITLE6=Incediando a vaneira
TTITLE7=É o bugio
TTITLE8=Armelino
TTITLE9=Voltar pra casa
TTITLE10=De coração
TTITLE11=A Galope
EXTD=\nYEAR: 2001  ID3G:   2
EXTT0=
EXTT1=
EXTT2=
EXTT3=
EXTT4=
EXTT5=
EXTT6=
EXTT7=
EXTT8=
EXTT9=
EXTT10=
EXTT11=
PLAYORDER=
